<svg id="visual" viewBox="0 0 900 600" width="900" height="600" xmlns="http://www.w3.org/2000/svg" xmlns:xlink="http://www.w3.org/1999/xlink" version="1.1"><path d="M0 79L82 187L164 121L245 115L327 103L409 223L491 169L573 79L655 145L736 253L818 199L900 139L900 0L818 0L736 0L655 0L573 0L491 0L409 0L327 0L245 0L164 0L82 0L0 0Z" fill="#aecbd6"></path><path d="M0 157L82 253L164 187L245 175L327 199L409 259L491 253L573 175L655 205L736 313L818 265L900 217L900 137L818 197L736 251L655 143L573 77L491 167L409 221L327 101L245 113L164 119L82 185L0 77Z" fill="#bbcde4"></path><path d="M0 397L82 409L164 397L245 433L327 409L409 403L491 421L573 403L655 415L736 409L818 391L900 391L900 215L818 263L736 311L655 203L573 173L491 251L409 257L327 197L245 173L164 185L82 251L0 155Z" fill="#d2ceea"></path><path d="M0 445L82 505L164 493L245 475L327 481L409 529L491 529L573 457L655 499L736 499L818 433L900 445L900 389L818 389L736 407L655 413L573 401L491 419L409 401L327 407L245 431L164 395L82 407L0 395Z" fill="#ebcfe7"></path><path d="M0 601L82 601L164 601L245 601L327 601L409 601L491 601L573 601L655 601L736 601L818 601L900 601L900 443L818 431L736 497L655 497L573 455L491 527L409 527L327 479L245 473L164 491L82 503L0 443Z" fill="#ffd1dc"></path></svg>